<?xml version="1.0" encoding="utf-8"?>
<!-- Generator: Adobe Illustrator 28.1.0, SVG Export Plug-In . SVG Version: 6.00 Build 0)  -->
<svg version="1.1" id="Layer_1" xmlns="http://www.w3.org/2000/svg" xmlns:xlink="http://www.w3.org/1999/xlink" x="0px" y="0px"
	 viewBox="0 0 171 36" style="enable-background:new 0 0 171 36;" xml:space="preserve">
<style type="text/css">
	.st0{fill:#867EFF;}
	.st1{fill:#FFFFFF;}
</style>
<g>
	<g>
		<path class="st0" d="M43,9c1.7,0,3,0.6,3.9,1.7c0-0.6,0.1-0.9,0.3-1.2c0.2-0.2,0.5-0.3,1-0.3c1,0,1.5,0.4,1.5,1.3
			c0,0.2,0,0.6-0.1,1.1c0,0.5-0.1,0.8-0.1,1.1c0,0.1,0,0.4,0,0.6s0,0.5,0,0.6V14c0,0.9-0.5,1.4-1.6,1.4c-0.9,0-1.5-0.4-1.6-1.2
			l-0.1-0.5c-0.2-1-1.1-1.6-2.6-1.6c-1.4,0-2.1,0.5-2.1,1.4c0,0.5,0.1,0.8,0.4,1c0.3,0.2,1,0.4,2.2,0.6c2,0.4,3.5,1,4.4,1.8
			c0.9,0.8,1.4,1.9,1.4,3.3c0,1.6-0.6,2.9-1.7,4c-1.1,1-2.5,1.6-4.2,1.6c-1.4,0-2.8-0.5-4.1-1.5c0,0.9-0.5,1.3-1.4,1.3
			c-1,0-1.6-0.5-1.6-1.5c0-0.3,0-0.7,0.1-1.1c0.1-0.5,0.1-0.9,0.1-1.2c0-0.2,0-0.4-0.1-0.8c0-0.4-0.1-0.6-0.1-0.8
			c0-0.4,0.2-0.8,0.5-1c0.3-0.3,0.8-0.4,1.3-0.4c0.6,0,1,0.1,1.3,0.4s0.5,0.8,0.6,1.5c0.2,1.2,1.1,1.8,2.7,1.8
			c0.7,0,1.2-0.2,1.6-0.5c0.4-0.3,0.6-0.7,0.6-1.3c0-0.6-0.2-1-0.5-1.2c-0.4-0.2-1.2-0.5-2.5-0.8l-1.6-0.4c-0.7-0.2-1.3-0.5-1.9-0.9
			c-1.2-0.9-1.7-2-1.7-3.5c0-1.5,0.5-2.7,1.5-3.6C40.1,9.4,41.4,9,43,9z"/>
		<path class="st0" d="M56.8,14v1.2c1.2-1.4,2.6-2.2,4.2-2.2c1.7,0,2.8,0.6,3.5,1.9c0.4,0.6,0.6,1.7,0.6,3v3.6
			c0,0.8,0.2,1.2,0.5,1.2c0.1,0,0.2,0,0.4-0.1c0.1,0,0.2,0,0.4,0c0.7,0,1.1,0.4,1.1,1.3c0,1.1-0.5,1.7-1.4,1.7c-0.3,0-0.6,0-1.2-0.1
			c-0.5-0.1-0.9-0.1-1.2-0.1c-0.4,0-0.8,0-1.3,0.1c-0.4,0.1-0.8,0.1-1.1,0.1c-0.9,0-1.4-0.5-1.4-1.5c0-0.9,0.3-1.3,1-1.3
			c0.4,0,0.6-0.2,0.6-0.6v-3.4c0-0.9-0.1-1.6-0.4-2c-0.2-0.4-0.6-0.6-1.2-0.6c-0.7,0-1.2,0.2-1.6,0.7c-0.4,0.4-0.6,1-0.6,1.7v2.5
			c0,0.7,0,1.2,0.1,1.3c0.1,0.2,0.2,0.3,0.6,0.3c0.6,0.1,0.9,0.5,0.9,1.3c0,1-0.4,1.5-1.3,1.5c-0.2,0-0.5,0-0.9-0.1
			c-0.6-0.1-1-0.1-1.3-0.1c-0.3,0-0.7,0-1.3,0.1c-0.6,0.1-1,0.1-1.3,0.1c-1,0-1.5-0.5-1.5-1.6c0-0.9,0.4-1.3,1.2-1.3
			c0.1,0,0.3,0,0.4,0.1c0.2,0.1,0.3,0.1,0.4,0.1c0.3,0,0.4-0.4,0.4-1.3v-3.9c0-0.9-0.1-1.4-0.4-1.4c-0.1,0-0.2,0-0.4,0.1
			c-0.2,0.1-0.3,0.1-0.4,0.1c-0.8,0-1.2-0.4-1.2-1.3c0-0.5,0.1-0.9,0.4-1.2c0.3-0.3,0.6-0.5,1-0.5c0.1,0,0.4,0,0.8,0.1
			c0.2,0,0.4,0.1,0.6,0.1c0.2,0,0.5,0,1-0.1c0.5-0.1,0.7-0.1,0.8-0.1C56.6,13.3,56.8,13.6,56.8,14z"/>
		<path class="st0" d="M78.9,25.9c-1.3,0-2.2-0.5-2.6-1.6c-1.1,1.1-2.5,1.6-4,1.6c-1.3,0-2.3-0.3-3-1c-0.8-0.7-1.1-1.6-1.1-2.7
			c0-1.7,0.7-2.8,2.2-3.3c0.6-0.2,1.3-0.4,2.2-0.5c1.1-0.2,1.9-0.4,2.3-0.7c0.4-0.2,0.6-0.6,0.6-1.1c0-0.4-0.2-0.7-0.5-0.9
			c-0.3-0.2-0.7-0.4-1.2-0.4c-0.5,0-0.8,0.2-0.8,0.5c0,0.1,0,0.2,0,0.3v0.1c0,0.4-0.2,0.8-0.6,1.1s-0.8,0.5-1.4,0.5
			c-0.6,0-1.2-0.2-1.6-0.6c-0.4-0.4-0.6-0.9-0.6-1.4c0-0.9,0.5-1.5,1.4-2c0.9-0.5,2.2-0.7,3.8-0.7c1.7,0,3,0.3,3.9,0.8
			c0.9,0.6,1.4,1.7,1.4,3.2v5c0,0.5,0.1,0.8,0.4,0.8c0.1,0,0.2,0,0.4,0c0,0,0.1,0,0.2,0c0.4,0,0.7,0.1,0.9,0.4
			c0.3,0.3,0.4,0.6,0.4,0.9c0,0.5-0.2,1-0.7,1.3C80.2,25.7,79.6,25.9,78.9,25.9z M75.4,20.7v-0.5c-0.1,0.1-0.8,0.3-2.1,0.6
			c-0.9,0.2-1.3,0.6-1.3,1c0,0.7,0.4,1.1,1.3,1.1C74.7,22.9,75.4,22.2,75.4,20.7z"/>
		<path class="st0" d="M86.7,14.2v0.7c1-1.3,2.2-1.9,3.7-1.9c1.5,0,2.6,0.6,3.5,1.7c0.9,1.1,1.3,2.7,1.3,4.6c0,2-0.4,3.5-1.3,4.7
			c-0.9,1.2-2.1,1.7-3.6,1.7c-0.6,0-1.1-0.1-1.6-0.3c-0.3-0.1-0.8-0.4-1.4-0.9v1.9c0,0.5,0.2,0.7,0.6,0.7c0.2,0,0.3,0,0.6-0.1
			c0.3,0,0.5,0,0.6,0c0.7,0,1.1,0.4,1.1,1.3c0,1-0.5,1.4-1.5,1.4c-0.3,0-0.7,0-1.3-0.1c-0.7-0.1-1.5-0.1-2.2-0.1c-0.3,0-1,0.1-2,0.2
			c-0.2,0-0.3,0-0.4,0c-0.4,0-0.8-0.1-1-0.4c-0.3-0.3-0.4-0.7-0.4-1.1c0-0.9,0.4-1.3,1.2-1.3c0.1,0,0.2,0,0.4,0.1
			c0.3,0.1,0.4,0.1,0.4,0.1c0.3,0,0.4-0.5,0.4-1.4v-8c0-0.9-0.1-1.4-0.4-1.4c0,0-0.2,0-0.4,0.1c-0.2,0-0.3,0-0.4,0
			c-0.8,0-1.2-0.4-1.2-1.3c0-0.5,0.1-0.9,0.4-1.2s0.6-0.5,1-0.5h0.2l0.8,0.1c0.1,0,0.3,0,0.7,0c0.5,0,0.9,0,1.3-0.1
			c0.2,0,0.4,0,0.5,0C86.5,13.4,86.7,13.6,86.7,14.2z M89.4,16.1c-0.6,0-1.1,0.3-1.5,0.9c-0.4,0.6-0.5,1.4-0.5,2.4
			c0,1,0.2,1.8,0.5,2.4c0.4,0.6,0.8,0.9,1.4,0.9c0.6,0,1.1-0.3,1.5-0.9c0.4-0.6,0.6-1.4,0.6-2.4c0-1-0.2-1.8-0.5-2.4
			C90.5,16.4,90,16.1,89.4,16.1z"/>
		<path class="st0" d="M101.2,14.2v0.7c1-1.3,2.2-1.9,3.7-1.9c1.5,0,2.6,0.6,3.5,1.7c0.9,1.1,1.3,2.7,1.3,4.6c0,2-0.4,3.5-1.3,4.7
			c-0.9,1.2-2.1,1.7-3.6,1.7c-0.6,0-1.1-0.1-1.6-0.3c-0.3-0.1-0.8-0.4-1.4-0.9v1.9c0,0.5,0.2,0.7,0.6,0.7c0.2,0,0.3,0,0.6-0.1
			c0.3,0,0.5,0,0.6,0c0.7,0,1.1,0.4,1.1,1.3c0,1-0.5,1.4-1.5,1.4c-0.3,0-0.7,0-1.3-0.1c-0.7-0.1-1.5-0.1-2.2-0.1c-0.3,0-1,0.1-2,0.2
			c-0.2,0-0.3,0-0.4,0c-0.4,0-0.8-0.1-1-0.4c-0.3-0.3-0.4-0.7-0.4-1.1c0-0.9,0.4-1.3,1.2-1.3c0.1,0,0.2,0,0.4,0.1
			c0.3,0.1,0.4,0.1,0.4,0.1c0.3,0,0.4-0.5,0.4-1.4v-8c0-0.9-0.1-1.4-0.4-1.4c0,0-0.2,0-0.4,0.1c-0.2,0-0.3,0-0.4,0
			c-0.8,0-1.2-0.4-1.2-1.3c0-0.5,0.1-0.9,0.4-1.2s0.6-0.5,1-0.5h0.2l0.8,0.1c0.1,0,0.3,0,0.7,0c0.5,0,0.9,0,1.3-0.1
			c0.2,0,0.4,0,0.5,0C101,13.4,101.2,13.6,101.2,14.2z M103.9,16.1c-0.6,0-1.1,0.3-1.5,0.9c-0.4,0.6-0.5,1.4-0.5,2.4
			c0,1,0.2,1.8,0.5,2.4c0.4,0.6,0.8,0.9,1.4,0.9c0.6,0,1.1-0.3,1.5-0.9c0.4-0.6,0.6-1.4,0.6-2.4c0-1-0.2-1.8-0.5-2.4
			C104.9,16.4,104.5,16.1,103.9,16.1z"/>
		<path class="st0" d="M116.4,17l1.6,5.2l1.6-5c0.1-0.4,0.2-0.7,0.2-0.9c0-0.2-0.1-0.3-0.4-0.4l-0.4-0.2c-0.3-0.1-0.5-0.5-0.5-1
			c0-0.4,0.1-0.7,0.3-1c0.2-0.3,0.5-0.4,0.9-0.4c0.2,0,0.6,0,1.1,0.1c0.5,0.1,0.9,0.1,1.1,0.1c0.3,0,0.6,0,1.2-0.1
			c0.5-0.1,0.9-0.1,1.2-0.1c1,0,1.4,0.5,1.4,1.6c0,0.4-0.1,0.7-0.3,1c-0.2,0.3-0.5,0.4-0.8,0.4c-0.1,0-0.2,0-0.3,0
			c-0.2,0-0.3,0-0.3,0c-0.3,0-0.5,0.2-0.7,0.7l-0.3,0.8l-2.1,5.4c-0.6,1.7-1.1,2.8-1.3,3.2c-0.2,0.5-0.6,1-1.1,1.6
			c-1.3,1.6-2.9,2.4-4.7,2.4c-1.1,0-2.1-0.3-2.8-0.8c-0.7-0.5-1.1-1.2-1.1-2.1c0-0.6,0.2-1.1,0.6-1.5c0.4-0.4,0.9-0.6,1.4-0.6
			c0.5,0,0.9,0.1,1.2,0.4c0.3,0.3,0.5,0.7,0.5,1.1c0,0.2,0,0.4,0,0.5c0.2,0.1,0.4,0.1,0.6,0.1c0.4,0,0.8-0.3,1.2-0.8
			c0.4-0.5,0.6-0.9,0.6-1.3c0-0.3-0.3-1.1-0.8-2.4l-2.7-6.4c-0.2-0.4-0.4-0.7-0.6-0.7c0,0-0.1,0-0.4,0c0,0,0,0-0.1,0
			c0,0-0.1,0-0.1,0c-0.8,0-1.2-0.5-1.2-1.4c0-0.4,0.1-0.8,0.4-1.1c0.3-0.3,0.6-0.5,1-0.5c0.3,0,0.6,0,1.1,0.1
			c0.5,0.1,0.9,0.1,1.1,0.1c0.3,0,0.8,0,1.5-0.1c0.7-0.1,1.1-0.1,1.2-0.1c0.9,0,1.3,0.5,1.3,1.4c0,0.7-0.3,1-1,1.2
			c-0.3,0-0.5,0.2-0.5,0.4C116.2,16.4,116.3,16.7,116.4,17z"/>
	</g>
	<g>
		<path class="st1" d="M126.8,20.4c-0.4,0.9-0.6,1.7-0.6,2.5c0,1.5,0.5,2.4,1.5,2.7c0.3,0.1,0.6,0.1,0.9,0.1c0.3,0,0.6,0,0.9-0.1
			c0.6-0.2,1.2-0.4,1.7-0.8c0.5-0.3,0.8-0.7,0.9-1c0.4-0.8,0.7-1.2,1.1-1.2c0.2,0,0.3,0.1,0.4,0.3c0,0.1,0,0.2,0,0.3
			c-0.1,0.7-0.3,1.4-0.6,2c-0.3,0.7-0.7,1.4-1.2,2.3c1.1,0,2,0.1,2.9,0.3c0.2,0,0.3,0.1,0.3,0.2c0,0.1-0.1,0.1-0.4,0.1
			c-0.6-0.2-1.5-0.2-2.6-0.2c-0.1,0-0.2,0-0.3,0c-0.5,0.8-1.3,1.5-2.1,2.1c-0.9,0.6-1.8,1-2.6,1.2c-0.5,0.1-0.9,0.2-1.2,0.2
			c-0.3,0-0.6,0-0.8-0.1c-0.6-0.2-1-0.5-1-0.9c0-0.1,0-0.2,0.1-0.4c0.2-0.5,0.9-1,1.9-1.5c0.8-0.3,1.6-0.6,2.4-0.7
			c0.8-0.1,1.8-0.2,2.9-0.2c0.7-1.1,1.1-2.2,1.3-3.2l0.1-0.2c-0.4,0.4-0.9,0.8-1.4,1.1c-0.5,0.3-1,0.5-1.4,0.7
			c-0.6,0.2-1.2,0.3-1.6,0.3c-0.4,0-0.8-0.1-1.1-0.2c-0.6-0.2-1-0.6-1.4-1.2c-0.4-0.6-0.6-1.3-0.6-2.2c0-0.9,0.2-1.8,0.7-2.7
			c-0.6-0.6-0.9-1.2-0.9-1.9c0-0.7,0.3-1.3,0.8-1.9c0.1-0.1,0.2-0.2,0.2-0.1c0,0,0,0.1-0.1,0.2c-0.4,0.5-0.6,1.1-0.6,1.6
			c0,0.6,0.2,1.2,0.7,1.7c0.1-0.1,0.1-0.3,0.3-0.5c0.7-1.1,1.6-2,2.8-2.6c0.9-0.5,1.8-0.7,2.7-0.7c0.2,0,0.5,0,0.7,0.1
			c1.1,0.2,1.9,0.6,2.3,1.4c0.2,0.3,0.2,0.6,0.2,1c0,0.3-0.1,0.7-0.3,1.1c-0.5,0.9-1.4,1.5-2.6,1.8c-0.7,0.2-1.3,0.3-2,0.3
			C128.9,21.3,127.7,21,126.8,20.4z M124.7,30.5c0,0.2,0.2,0.4,0.6,0.5c0.1,0,0.3,0.1,0.5,0.1c0.6,0,1.4-0.2,2.4-0.7
			c1.2-0.6,2.2-1.3,2.9-2.4c-0.9,0-1.7,0.1-2.4,0.2c-1,0.1-2,0.5-2.9,1.1C125.1,29.8,124.7,30.1,124.7,30.5z M132.2,16.1
			c-0.8,0-1.6,0.3-2.4,0.8c-1.2,0.7-2.2,1.8-2.9,3.2c0.4,0.3,0.9,0.5,1.4,0.7c0.5,0.1,1,0.2,1.3,0.2c1.9,0,3.3-0.5,4.2-1.5
			c0.5-0.5,0.7-1,0.7-1.5c0-0.8-0.5-1.4-1.4-1.6C132.9,16.2,132.6,16.1,132.2,16.1z"/>
		<path class="st1" d="M136.4,21.2c0,0.4-0.3,0.8-0.8,1.1c0.2,0,0.4,0,0.7,0c0.3,0,0.7,0,1.1-0.1c0,0,0,0.1,0,0.2
			c0,0.1-0.1,0.3-0.2,0.5c-0.1,0.2-0.2,0.4-0.3,0.6c-0.1,0.2-0.2,0.3-0.2,0.5c-0.1,0.1-0.2,0.3-0.3,0.5c-0.1,0.2-0.2,0.4-0.2,0.6
			c-0.2,0.7-0.2,1,0.1,1c0.4,0,0.9-0.7,1.6-2.2c0.1-0.1,0.1-0.2,0.2-0.1c0,0,0.1,0.1,0.1,0.1s-0.1,0.2-0.2,0.4
			c-0.1,0.2-0.2,0.5-0.4,0.7c-0.1,0.2-0.3,0.5-0.6,0.9c-0.3,0.4-0.7,0.6-1,0.6c-0.3,0-0.6-0.2-0.7-0.6c0-0.1,0-0.2,0-0.4
			s0.1-0.4,0.2-0.6s0.3-0.6,0.5-1c0.2-0.4,0.3-0.6,0.4-0.7c0-0.1,0-0.1,0-0.2c0-0.3-0.4-0.4-1.1-0.4l-0.2,0.4
			c-0.6,1.5-1.1,2.4-1.6,2.9c-0.1,0.1-0.1,0.1-0.1-0.1c0,0,0-0.1,0-0.1c0.5-0.7,0.9-1.4,1.3-2.3c0.4-0.9,0.6-1.7,0.8-2.5
			c0.1-0.3,0.2-0.4,0.4-0.4c0.2,0,0.3,0.1,0.4,0.4C136.4,21,136.4,21.1,136.4,21.2z"/>
		<path class="st1" d="M141.4,24c-0.3,0.6-0.5,1-0.5,1.3c-0.1,0.3-0.1,0.5-0.1,0.7c0,0.2,0.1,0.3,0.2,0.3c0.2,0,0.4-0.2,0.6-0.5
			c0.4-0.4,0.7-1,1.1-1.8c0-0.1,0.1-0.1,0.1-0.1c0.1,0,0.1,0,0.1,0.1c0,0,0,0.1,0,0.2c-0.8,1.6-1.5,2.5-2,2.5
			c-0.3,0-0.5-0.1-0.6-0.4c-0.1-0.1-0.1-0.3-0.1-0.5c0-0.2,0-0.5,0.1-0.8c-0.7,1.1-1.3,1.7-1.8,1.7c-0.1,0-0.3,0-0.4-0.1
			c-0.3-0.2-0.4-0.5-0.4-0.9c0-0.9,0.4-1.7,1.1-2.6c0.4-0.5,0.9-0.8,1.6-1c0.2,0,0.3-0.1,0.5-0.1c0.4,0,0.7,0.1,1,0.4
			c0.1,0.1,0.1,0.2,0.1,0.3c0,0.1-0.1,0.1-0.2,0.1c-0.1-0.3-0.3-0.5-0.6-0.5c-0.4,0-0.8,0.3-1.4,0.9c-0.3,0.4-0.6,0.8-0.9,1.2
			c-0.3,0.6-0.5,1-0.5,1.4c0,0.3,0.1,0.5,0.3,0.5c0.5,0,1.2-0.8,2.1-2.4c0.2-0.3,0.3-0.5,0.4-0.7c0.1-0.1,0.3-0.2,0.4-0.2
			c0,0,0.1,0,0.3,0c0.1,0,0.3,0,0.3,0C141.9,23.1,141.7,23.4,141.4,24z"/>
		<path class="st1" d="M148.9,22.2c-1.1,1.9-1.6,3.1-1.6,3.7c0,0.2,0.1,0.4,0.3,0.4c0.2,0,0.5-0.2,0.7-0.5c0.4-0.5,0.8-1.1,1.1-1.8
			c0.1-0.1,0.1-0.2,0.2-0.1c0.1,0,0.1,0.1,0.1,0.1c0,0,0,0.2-0.1,0.3c-0.1,0.2-0.2,0.3-0.2,0.4c-0.1,0.1-0.2,0.3-0.3,0.6
			c-0.2,0.3-0.3,0.5-0.5,0.7c-0.1,0.1-0.3,0.3-0.5,0.4c-0.2,0.1-0.4,0.2-0.7,0.2c-0.3,0-0.5-0.1-0.6-0.4c-0.1-0.1-0.1-0.3-0.1-0.5
			c0-0.2,0-0.4,0.1-0.7c0.1-0.3,0.3-0.7,0.7-1.4c0.1-0.2,0.1-0.3,0.1-0.4c0-0.1-0.1-0.1-0.2-0.1c-0.1,0-0.4,0.2-0.8,0.5
			c-0.4,0.4-0.8,0.8-1.2,1.4c-0.4,0.6-0.7,1.1-0.7,1.4c-0.1,0-0.3-0.1-0.3-0.2c-0.1-0.1-0.1-0.2-0.1-0.3c0-0.4,0.2-1,0.7-2.1
			c0.2-0.3,0.2-0.6,0.3-0.7c0-0.1,0-0.2,0-0.2c0,0-0.1,0-0.2,0c-0.2,0.1-0.4,0.3-0.7,0.6c-0.6,0.6-1.2,1.4-1.8,2.6
			c0,0.1-0.1,0.2-0.2,0.2c-0.1,0-0.2,0-0.4,0s-0.3,0-0.4,0.1c0.2-0.3,0.4-0.9,0.8-1.7c0.7-1.5,1.2-2.4,1.4-2.6
			c0.1-0.1,0.3-0.2,0.4-0.2c0,0,0.1,0,0.3,0c0.1,0,0.3,0,0.3,0c-0.3,0.2-0.9,1-1.6,2.5c0.4-0.5,0.7-0.8,0.9-1
			c0.2-0.2,0.3-0.3,0.4-0.4c0.1-0.1,0.2-0.1,0.2-0.2c0,0,0.1-0.1,0.2-0.2c0.1-0.1,0.2-0.1,0.2-0.2c0,0,0.1-0.1,0.2-0.2
			c0.1-0.1,0.2-0.1,0.2-0.1c0,0,0.1-0.1,0.2-0.1c0.1-0.1,0.1-0.1,0.2-0.1c0,0,0.1,0,0.2,0c0.1,0,0.1,0,0.1,0
			c0.2,0.1,0.3,0.2,0.3,0.3c0,0.1-0.1,0.5-0.4,1c-0.3,0.5-0.5,0.9-0.6,1.1c0.4-0.5,0.8-0.9,1.1-1.2c0.4-0.3,0.8-0.6,1.2-0.9
			c0.5-0.3,0.8-0.4,1-0.4C148.9,22.2,148.9,22.2,148.9,22.2z"/>
	</g>
</g>
<path class="st0" d="M8.2,32.5h18c3,0,5.5-2.4,5.5-5.5V9c0-3-2.4-5.5-5.5-5.5h-18C5.2,3.5,2.7,6,2.7,9v18C2.7,30,5.2,32.5,8.2,32.5z
	"/>
<polygon class="st1" points="17.2,10.2 19.7,15.4 25.4,16.2 21.3,20.1 22.2,25.8 17.2,23.1 12.2,25.8 13.1,20.1 9.1,16.2 14.7,15.4 
	"/>
<g>
	<g>
		<path class="st1" d="M7.8,29.5c0-0.1,0-0.2,0-0.3c-0.1,0-0.1,0-0.2,0c0,0-0.1,0-0.1-0.1c0,0,0-0.1,0-0.1c0.1,0,0.1,0,0.2,0
			c0-0.2,0.1-0.4,0.1-0.6c0,0,0-0.1,0.1,0c0,0,0.1,0,0,0.1c0,0.1-0.1,0.3-0.1,0.5c0.2-0.1,0.4-0.1,0.6-0.2c0.2-0.1,0.4-0.3,0.3-0.5
			c-0.3-0.5-1.4,0-1.5,0.5c0,0,0,0.1-0.1,0.1c0,0-0.1,0-0.1-0.1c0.1-0.6,1.3-1.2,1.7-0.6c0.1,0.2,0.1,0.5-0.3,0.7
			C8.5,28.9,8.3,29,8.1,29c0.1,0,0.2,0.1,0.3,0.2c0.2,0,0.4-0.1,0.7-0.1c0,0,0.1,0,0.1,0.1c0,0.1-0.2,0-0.7,0.1
			c0,0.4-0.5,0.7-0.9,0.7C7.3,30.1,7.2,29.8,7.8,29.5z M8.3,29.4c-0.2,0-0.3,0.1-0.4,0.1c0,0,0,0.1,0,0.1c0,0,0,0.1-0.1,0.1h0
			c0,0-0.1,0-0.1-0.1v0c-0.3,0.2-0.5,0.5,0,0.3C8,29.9,8.3,29.7,8.3,29.4z M8.3,29.3c-0.1-0.1-0.2-0.1-0.3-0.2l0,0.3
			C8,29.4,8.1,29.3,8.3,29.3z"/>
		<path class="st1" d="M9.6,29.9c0-0.2,0-0.5,0-0.7c-0.3,0.7-0.9,0.5-0.5-0.3c0,0,0.1,0,0.1,0c0,0,0,0.1,0,0.1
			c-0.1,0.3-0.2,0.6,0,0.5c0.2,0,0.3-0.3,0.4-0.6c0,0,0,0,0.1,0c0,0,0.1,0,0.1,0.1c0,0.2,0,0.5,0,0.9c0.2-0.2,0.4-0.4,0.6-0.6
			c0,0,0.1,0,0.1,0c0,0,0,0.1,0,0.1c-0.2,0.3-0.4,0.5-0.7,0.8c0,0.3-0.1,0.6-0.2,0.8C9.2,31.4,8.6,31,9.6,29.9z M9.6,30.1
			c-0.2,0.2-0.3,0.4-0.3,0.5c-0.1,0.2-0.1,0.3-0.1,0.3C9.2,31,9.4,30.9,9.6,30.1z"/>
		<path class="st1" d="M11.3,28.5c0.5-1,1.1-0.5,1.1-0.2c0,0,0,0.1-0.1,0.1c0,0-0.1,0-0.1-0.1c0-0.2-0.4-0.5-0.8,0.3
			c-0.3,0.6-0.3,1.5,0.3,1.5c0.4,0,0.7-0.4,0.9-0.7c0,0,0.1,0,0.1,0c0,0,0,0.1,0,0.1c-0.2,0.4-0.6,0.7-1,0.8
			C10.9,30.2,10.9,29.2,11.3,28.5z"/>
		<path class="st1" d="M12.7,28.9c0.2-0.2,0.4-0.1,0.4,0c0,0.2-0.2,0.4-0.5,0.4c0,0.3,0.3,0.3,0.5,0.2c0.1-0.1,0.2-0.2,0.4-0.4
			c0,0,0.1,0,0.1,0c0,0,0,0.1,0,0.1c-0.2,0.4-0.5,0.5-0.7,0.5C12.4,29.7,12.5,29.2,12.7,28.9z M13,29c0-0.1-0.2,0-0.3,0.2
			C12.9,29.2,13,29.1,13,29z"/>
		<path class="st1" d="M13.4,29.6c0-0.2,0-0.5,0.1-0.7c0,0,0-0.1,0.1-0.1c0,0,0.1,0,0.1,0.1c0,0.1,0,0.2,0,0.3
			c0.1-0.2,0.2-0.4,0.3-0.4c0.1,0,0.1,0,0.1,0.1c0.1,0.1,0,0.3,0.1,0.4c0.1,0.1,0.3-0.1,0.4-0.2c0,0,0.1,0,0.1,0c0,0,0,0.1,0,0.1
			c-0.1,0.2-0.3,0.4-0.5,0.3c-0.2-0.1-0.1-0.4-0.1-0.5c-0.1-0.1-0.2,0.3-0.4,0.6C13.5,29.7,13.5,29.7,13.4,29.6
			C13.5,29.7,13.4,29.7,13.4,29.6z"/>
		<path class="st1" d="M14.5,29.7c0-0.6,0-1.1,0.1-1.6l-0.6,0c0,0-0.1,0-0.1-0.1c0,0,0-0.1,0.1-0.1l0.6,0c0-0.1,0-0.3,0.1-0.4
			c0,0,0-0.1,0.1,0c0,0,0.1,0,0,0.1c0,0.1-0.1,0.3-0.1,0.4l0.7,0c0,0,0.1,0,0.1,0.1c0,0,0,0.1-0.1,0.1l-0.7,0
			c-0.1,0.5-0.1,1-0.1,1.6C14.6,29.7,14.6,29.7,14.5,29.7L14.5,29.7C14.5,29.7,14.5,29.7,14.5,29.7z"/>
		<path class="st1" d="M14.9,28.9C14.9,28.9,15,28.8,14.9,28.9c0.1,0,0.1,0,0.1,0c0,0.1-0.2,0.6-0.1,0.6c0.1,0,0.3-0.2,0.4-0.4
			c0,0,0.1,0,0.1,0c0,0,0,0.1,0,0.1c-0.1,0.2-0.4,0.6-0.6,0.5C14.7,29.6,14.8,29.2,14.9,28.9z M15,28.6C15,28.6,15,28.5,15,28.6
			c0-0.2,0.2-0.1,0.1-0.1l0,0.1C15.1,28.7,15.1,28.7,15,28.6C15,28.7,15,28.6,15,28.6z"/>
		<path class="st1" d="M15.2,29.6c0.1-0.1,0.1-0.2,0.2-0.2c0-0.1-0.1-0.3-0.1-0.4c0,0,0-0.1,0-0.1c0,0,0.1,0,0.1,0
			c0,0.1,0.1,0.3,0.1,0.3c0.1-0.1,0.2-0.2,0.3-0.4c0,0,0.1,0,0.1,0c0,0,0,0.1,0,0.1c-0.1,0.3-0.2,0.4-0.3,0.5c0.3,0.5,0.6,0,0.7-0.2
			c0,0,0.1,0,0.1,0c0,0,0,0.1,0,0.1c0,0-0.1,0.2-0.3,0.3c-0.3,0.2-0.5,0.2-0.7-0.1c-0.1,0.1-0.1,0.1-0.2,0.2
			C15.3,29.7,15.3,29.7,15.2,29.6C15.2,29.6,15.2,29.6,15.2,29.6z"/>
		<path class="st1" d="M17.1,30C17.1,29.9,17.1,29.9,17.1,30c0.3,0.1,0.7,0,0.9-0.2c0.9-0.6,0.5-1.8-0.3-1.6
			c-0.1,0.5-0.1,1.1-0.1,1.6c0,0,0,0.1-0.1,0.1h0c0,0-0.1,0-0.1-0.1c0-0.5,0-1,0.1-1.5c-0.1,0-0.2,0.1-0.3,0.2c0,0-0.1,0-0.1,0
			c0,0,0-0.1,0-0.1c0.1-0.1,0.2-0.2,0.4-0.3c0,0,0-0.1,0-0.1c0,0,0-0.1,0.1,0c0,0,0.1,0,0,0.1c0,0,0,0,0,0.1
			c0.9-0.2,1.3,1.2,0.4,1.9C17.8,30.1,17.4,30.2,17.1,30C17.1,30,17.1,30,17.1,30z"/>
		<path class="st1" d="M18.9,28.9c0.2-0.2,0.4-0.1,0.4,0c0,0.2-0.2,0.4-0.5,0.4c0,0.3,0.3,0.3,0.5,0.2c0.1-0.1,0.2-0.2,0.4-0.4
			c0,0,0.1,0,0.1,0c0,0,0,0.1,0,0.1c-0.2,0.4-0.5,0.5-0.7,0.5C18.5,29.7,18.6,29.2,18.9,28.9z M19.1,29c0-0.1-0.2,0-0.3,0.2
			C19,29.2,19.1,29.1,19.1,29z"/>
		<path class="st1" d="M19.6,28.9C19.6,28.9,19.6,28.8,19.6,28.9c0.1,0,0.1,0,0.1,0c0,0.3,0,0.6,0.1,0.7c0.1,0,0.2-0.6,0.2-0.6
			c0,0,0,0,0.1,0c0.1,0,0,0.1,0,0.1c0,0,0.2,0.1,0.3,0c0,0,0.1,0,0.1,0c0,0,0,0.1,0,0.1c-0.2,0.1-0.3,0-0.4,0c0,0.1,0,0.2-0.1,0.2
			c0,0.1-0.1,0.3-0.2,0.3C19.6,29.7,19.6,29.1,19.6,28.9z"/>
		<path class="st1" d="M20.6,28.9c0.2-0.2,0.4-0.1,0.4,0c0,0.2-0.2,0.4-0.5,0.4c0,0.3,0.3,0.3,0.5,0.2c0.1-0.1,0.2-0.2,0.4-0.4
			c0,0,0.1,0,0.1,0c0,0,0,0.1,0,0.1c-0.2,0.4-0.5,0.5-0.7,0.5C20.2,29.7,20.3,29.2,20.6,28.9z M20.8,29c0-0.1-0.2,0-0.3,0.2
			C20.7,29.2,20.8,29.1,20.8,29z"/>
		<path class="st1" d="M21.5,27.9C21.5,27.9,21.5,27.9,21.5,27.9c0.1,0,0.1,0,0.1,0c-0.1,0.6-0.2,1.1-0.2,1.3c0,0.3,0.1,0.3,0.1,0.3
			c0.1,0,0.3-0.2,0.4-0.4c0,0,0.1,0,0.1,0c0,0,0,0.1,0,0.1c-0.1,0.2-0.3,0.5-0.5,0.5C21.1,29.7,21.3,28.6,21.5,27.9z"/>
		<path class="st1" d="M21.9,29.2c0-0.1,0.1-0.2,0.2-0.3c0,0,0.1,0,0.1,0c0.1,0,0.2,0.2,0.2,0.3c0.1,0,0.2,0,0.3,0c0,0,0.1,0,0.1,0
			c0,0,0,0.1,0,0.1c-0.1,0-0.2,0-0.3,0c0,0.1,0,0.2-0.1,0.3C22.2,29.9,21.8,29.6,21.9,29.2z M22.3,29.2c-0.1,0-0.2-0.1-0.2-0.2
			c-0.2,0.3,0,0.8,0.1,0.4C22.3,29.4,22.4,29.3,22.3,29.2z"/>
		<path class="st1" d="M22.7,31c0-0.6,0-1.1,0-1.7l0,0c0,0-0.1,0-0.1,0s0-0.1,0-0.1c0,0,0.1-0.1,0.1-0.1c0-0.1,0-0.2,0-0.3
			c0,0,0-0.1,0.1-0.1c0,0,0.1,0,0.1,0.1l0,0.2c0.1-0.1,0.2-0.1,0.3-0.1c0.4-0.1,0.3,0.5-0.1,0.8c-0.1,0.1-0.2,0.1-0.3,0.1
			c0,0.4,0,0.8,0,1.3C22.9,31,22.8,31,22.7,31C22.8,31,22.7,31,22.7,31z M23.3,29c-0.1-0.1-0.3,0-0.4,0.1c0,0.1,0,0.3,0,0.4
			C23.1,29.6,23.5,29.1,23.3,29z"/>
		<path class="st1" d="M23.7,29.6v-0.8c0,0,0-0.1,0.1-0.1s0.1,0,0.1,0.1v0.4c0-0.1,0.1-0.2,0.2-0.3c0.1-0.1,0.1-0.1,0.2-0.1
			c0.1,0,0.1,0.1,0.1,0.3c0.1-0.1,0.1-0.2,0.2-0.2c0,0,0.1,0,0.1,0c0.1,0.1,0.1,0.4,0.2,0.4c0,0,0.1,0,0.3-0.2c0,0,0.1,0,0.1,0
			c0,0,0,0.1,0,0.1c-0.1,0.1-0.3,0.3-0.4,0.3c-0.2,0-0.2-0.3-0.3-0.4c-0.1,0.1-0.1,0.4-0.2,0.4c0,0,0,0.1-0.1,0c0,0-0.1,0-0.1-0.1
			c0-0.4,0-0.5,0-0.6c0,0-0.2,0.4-0.3,0.7C23.8,29.7,23.7,29.7,23.7,29.6C23.7,29.7,23.7,29.7,23.7,29.6z"/>
		<path class="st1" d="M25.1,28.9c0.2-0.2,0.4-0.1,0.4,0c0,0.2-0.2,0.4-0.5,0.4c0,0.3,0.3,0.3,0.5,0.2c0.1-0.1,0.2-0.2,0.4-0.4
			c0,0,0.1,0,0.1,0c0,0,0,0.1,0,0.1c-0.2,0.4-0.5,0.5-0.7,0.5C24.8,29.7,24.9,29.2,25.1,28.9z M25.4,29c0-0.1-0.2,0-0.3,0.2
			C25.3,29.2,25.4,29.1,25.4,29z"/>
		<path class="st1" d="M25.8,29.6c0-0.2,0-0.5,0.1-0.7c0,0,0-0.1,0.1-0.1c0,0,0.1,0,0.1,0.1c0,0.1,0,0.2,0,0.3
			c0.1-0.2,0.2-0.4,0.3-0.4c0.1,0,0.1,0,0.1,0.1c0.1,0.1,0,0.3,0.1,0.4c0.1,0.1,0.3-0.1,0.4-0.2c0,0,0.1,0,0.1,0c0,0,0,0.1,0,0.1
			c-0.1,0.2-0.3,0.4-0.5,0.3c-0.2-0.1-0.1-0.4-0.1-0.5c-0.1-0.1-0.2,0.3-0.4,0.6C25.9,29.7,25.9,29.7,25.8,29.6
			C25.8,29.7,25.8,29.7,25.8,29.6z"/>
		<path class="st1" d="M26.9,29.7c0-0.6,0-1.1,0.1-1.6l-0.6,0c0,0-0.1,0-0.1-0.1c0,0,0-0.1,0.1-0.1l0.6,0c0-0.1,0-0.3,0.1-0.4
			c0,0,0-0.1,0.1,0c0,0,0.1,0,0,0.1c0,0.1-0.1,0.3-0.1,0.4l0.7,0c0,0,0.1,0,0.1,0.1c0,0,0,0.1-0.1,0.1l-0.7,0
			c-0.1,0.5-0.1,1-0.1,1.6C27,29.7,27,29.7,26.9,29.7L26.9,29.7C26.9,29.7,26.9,29.7,26.9,29.7z"/>
	</g>
</g>
</svg>
